<svg width="200" height="200" viewBox="0 0 200 200" fill="none" xmlns="http://www.w3.org/2000/svg">
<rect width="200" height="200" fill="#161718"></rect>
<path d="M107.348 50H148.485C149.322 50 150 50.6784 150 51.5152V114.383C150 115.889 148.042 116.473 147.217 115.213L106.08 52.3448C105.42 51.3371 106.143 50 107.348 50Z" fill="#246DFF"></path>
<path d="M92.6524 50H51.5152C50.6784 50 50 50.6784 50 51.5152V114.383C50 115.889 51.9585 116.473 52.783 115.213L93.9203 52.3448C94.5797 51.3371 93.8567 50 92.6524 50Z" fill="#20A34E"></path>
<path d="M99.2952 100.334L52.5632 147.417C51.6142 148.374 52.2915 150 53.6386 150H146.4C147.741 150 148.421 148.385 147.483 147.426L101.454 100.342C100.863 99.7376 99.891 99.7339 99.2952 100.334Z" fill="#F86606"></path>
</svg>
